#N canvas 495 180 1338 716 12;
#X obj 31 20 inlet;
#X obj 306 280 r linear_velocity;
#X text 514 271 AUDIO FROM STATES;
#X text 297 249 MOVING LINEARLY;
#X text 9 610 CONNECT THIS DAC~ CORD FOR SYNTH SONIFICATION;
#X obj 400 20 loadbang;
#X msg 400 60 \; pd dsp 1;
#X text 17 218 's' and 'send' are equivalent \, letting you put 'r' or 'receive' objects wherever you want;
#X text 489 58 This message is sent on start \, enabling audio. Incorrect audio settings will cause this to fail.;
#X obj 642 925 dac~;
#X obj 627 842 clone stringSynth.cl 16;
#N canvas 361 514 450 300 handle_polyphony 0;
#X obj 37 37 inlet;
#X obj 37 149 pack 0 0 0;
#X obj 38 120 - 1;
#X obj 38 78 poly 16 1;
#X obj 37 170 outlet;
#X connect 0 0 3 0;
#X connect 1 0 4 0;
#X connect 2 0 1 0;
#X connect 3 0 2 0;
#X connect 3 1 1 1;
#X connect 3 2 1 2;
#X restore 629 805 pd handle_polyphony;
#X floatatom 533 699 5 0 0 0 - - - 0;
#N canvas 168 744 450 367 create_midi_notes 0;
#X obj 37 37 inlet;
#X floatatom 36 120 5 0 0 0 - - - 0;
#X obj 36 274 pack 0 0;
#X obj 34 68 t i b;
#X obj 36 295 outlet;
#X floatatom 234 191 5 0 0 0 - - - 0;
#X obj 36 232 makenote 100 500;
#X text 856 535 comment;
#X obj 830 525 tgl 15 0 empty empty empty 17 7 0 10 #fcfcfc #000000 #000000 0 1;
#X obj 833 608 bng 15 250 50 0 empty empty empty 17 7 0 10 #fcfcfc #000000 #000000;
#X obj 831 558 metro 2000;
#X text 866 545 comment;
#X obj 840 535 tgl 15 0 empty empty empty 17 7 0 10 #fcfcfc #000000 #000000 0 1;
#X obj 843 618 bng 15 250 50 0 empty empty empty 17 7 0 10 #fcfcfc #000000 #000000;
#X obj 841 568 metro 2000;
#X text 876 555 comment;
#X obj 850 545 tgl 15 0 empty empty empty 17 7 0 10 #fcfcfc #000000 #000000 0 1;
#X obj 853 628 bng 15 250 50 0 empty empty empty 17 7 0 10 #fcfcfc #000000 #000000;
#X obj 851 578 metro 2000;
#X text 886 565 comment;
#X obj 860 555 tgl 15 0 empty empty empty 17 7 0 10 #fcfcfc #000000 #000000 0 1;
#X obj 863 638 bng 15 250 50 0 empty empty empty 17 7 0 10 #fcfcfc #000000 #000000;
#X obj 861 588 metro 2000;
#X connect 0 0 3 0;
#X connect 1 0 6 0;
#X connect 2 0 4 0;
#X connect 3 0 1 0;
#X connect 5 0 6 2;
#X connect 6 0 2 0;
#X connect 6 1 2 1;
#X connect 8 0 10 0;
#X connect 10 0 9 0;
#X connect 12 0 14 0;
#X connect 14 0 13 0;
#X connect 16 0 18 0;
#X connect 18 0 17 0;
#X connect 20 0 22 0;
#X connect 22 0 21 0;
#X restore 631 771 pd create_midi_notes;
#X obj 21 87 *;
#X floatatom 37 146 5 0 0 0 - - - 0;
#X obj 1018 204 dac~;
#X floatatom 1062 126 5 0 0 0 - - - 0;
#X obj 1019 160 *~;
#N canvas 420 223 981 331 oscs 0;
#X obj 37 37 inlet;
#X obj 32 121 osc~;
#X obj 206 123 osc~;
#X obj 204 70 * 1.015;
#X obj 374 127 osc~;
#X text 359 165 octave below;
#X obj 620 126 osc~;
#X obj 619 78 * 1.496;
#X obj 620 163 *~ 0.5;
#X obj 757 126 osc~;
#X obj 757 163 *~ 0.25;
#X text 745 202 octave up;
#X text 573 214 fifth up;
#X obj 73 256 outlet~;
#X obj 756 78 * 1.1;
#X obj 372 74 * 2;
#X connect 0 0 1 0;
#X connect 0 0 7 0;
#X connect 0 0 14 0;
#X connect 0 0 15 0;
#X connect 0 0 3 0;
#X connect 1 0 13 0;
#X connect 2 0 13 0;
#X connect 3 0 2 0;
#X connect 4 0 13 0;
#X connect 6 0 8 0;
#X connect 7 0 6 0;
#X connect 8 0 13 0;
#X connect 9 0 10 0;
#X connect 10 0 13 0;
#X connect 14 0 9 0;
#X connect 15 0 4 0;
#X restore 965 120 pd oscs;
#X obj 940 88 mtof;
#X floatatom 392 337 5 0 0 0 - - - 0;
#X obj 703 171 f;
#X obj 782 166 + 1;
#X msg 794 131 0;
#X obj 704 92 tgl 15 0 empty empty empty 17 7 0 10 #fcfcfc #000000 #000000 0 1;
#N canvas 0 50 450 250 (subpatch) 0;
#X array array1 30 float 1;
#A 0 1066 977 984 993 1000 1007 1017 1027 1036 1044 1052 1060 1065 1066 877 886 892 897 899 900 732 753 770 781 790 792 582 600 602 483;
#X coords 0 1000 29 -1000 200 140 1 0 0;
#X restore 945 268 graph;
#X obj 608 232 tabwrite array1;
#X obj 1260 216 until;
#X obj 1252 245 f;
#X obj 1283 245 + 1;
#X msg 1259 143 -1;
#X obj 1283 318 tabread array1;
#X msg 1411 311 0;
#X msg 1252 184 30;
#X obj 1241 415 f;
#X obj 1351 113 arraysize array1;
#X obj 1179 116 t b b b b b;
#X msg 1390 178 set \$1;
#X obj 1290 601 print average;
#X obj 1315 432 /;
#X obj 1283 387 f;
#X obj 1283 347 t b f;
#X obj 1315 386 +;
#X obj 1357 148 t f f;
#X text 1439 570 comment;
#X floatatom 1231 606 5 0 0 0 - - - 0;
#X obj 783 207 mod 30;
#X obj 1257 78 f;
#X obj 1336 73 + 1;
#X msg 1348 38 0;
#X obj 1258 -1 tgl 15 0 empty empty empty 17 7 0 10 #fcfcfc #000000 #000000 0 1;
#X obj 1269 697 tabwrite averages;
#N canvas 0 50 450 250 (subpatch) 0;
#X array averages 25 float 1;
#A 0 887.667 887.667 887.667 887.667 887.667 887.667 887.667 887.667 887.667 887.667 887.667 887.667 887.667 887.667 887.667 887.667 887.667 887.667 887.667 887.667 887.667 887.667 887.667 887.667 887.667;
#X coords 0 1000 24 -1000 200 140 1 0 0;
#X restore 717 265 graph;
#X obj 1414 653 f;
#X obj 1493 648 + 1;
#X msg 1505 613 0;
#X obj 1414 560 tgl 15 0 empty empty empty 17 7 0 10 #fcfcfc #000000 #000000 0 1;
#X obj 293 421 *~;
#X obj 372 472 dac~;
#X obj 315 380 marimba~;
#X floatatom 1115 468 5 0 0 0 - - - 0;
#X floatatom 299 324 5 0 0 0 - - - 0;
#X floatatom 416 420 5 0 0 0 - - - 0;
#X obj 651 563 maxlib/scale;
#X obj 861 436 tgl 15 0 empty empty empty 17 7 0 10 #fcfcfc #000000 #000000 0 1;
#X floatatom 612 492 5 0 0 0 - - - 0;
#X floatatom 597 608 5 0 0 0 - - - 0;
#X obj 658 607 int;
#X text 826 563 comment;
#X obj 806 547 tgl 15 0 empty empty empty 17 7 0 10 #fcfcfc #000000 #000000 0 1;
#X obj 803 636 bng 15 250 50 0 empty empty empty 17 7 0 10 #fcfcfc #000000 #000000;
#X obj 1106 90;
#X obj 690 663 value;
#X obj 804 596 metro 300;
#X obj 704 125 metro 100;
#X obj 1258 32 metro 100;
#X obj 1415 607 metro 100;
#X obj 1494 689 mod 25;
#X obj 77 52 nbx 5 14 -1e+37 1e+37 0 0 empty empty empty 0 -8 0 10 #fcfcfc #000000 #000000 0 256;
#X obj 598 418 nbx 5 14 -1e+37 1e+37 0 0 empty empty empty 0 -8 0 10 #fcfcfc #000000 #000000 0 256;
#X obj 668 421 nbx 5 14 -1e+37 1e+37 0 0 empty empty empty 0 -8 0 10 #fcfcfc #000000 #000000 0 256;
#X obj 713 441 nbx 5 14 -1e+37 1e+37 0 0 empty empty empty 0 -8 0 10 #fcfcfc #000000 #000000 0 256;
#X obj 783 452 nbx 5 14 -1e+37 1e+37 0 0 empty empty empty 0 -8 0 10 #fcfcfc #000000 #000000 0 256;
#X obj 165 16 inlet;
#X obj 291 23 inlet;
#X obj 293 109 *;
#X floatatom 291 146 5 0 0 0 - - - 0;
#X obj 338 108 nbx 5 14 -1e+37 1e+37 0 0 empty empty empty 0 -8 0 10 #fcfcfc #000000 #000000 0 256;
#X obj 18 195 s x_position;
#X obj 284 182 s z_position;
#X obj 177 100 *;
#X floatatom 180 145 5 0 0 0 - - - 0;
#X obj 214 71 nbx 5 14 -1e+37 1e+37 0 0 empty empty empty 0 -8 0 10 #fcfcfc #000000 #000000 0 256;
#X obj 168 173 s y_position;
#X obj 564 150 r x_position;
#X obj 640 885 *~;
#X floatatom 1035 797 5 0 0 0 - - - 0;
#X obj 988 827 *;
#X floatatom 913 681 5 0 0 0 - - - 0;
#X obj 945 645 nbx 5 14 -1e+37 1e+37 0 0 empty empty empty 0 -8 0 10 #fcfcfc #000000 #000000 0 256;
#X obj 975 612 nbx 5 14 -1e+37 1e+37 0 0 empty empty empty 0 -8 0 10 #fcfcfc #000000 #000000 0 256;
#X obj 1040 647 nbx 5 14 -1e+37 1e+37 0 0 empty empty empty 0 -8 0 10 #fcfcfc #000000 #000000 0 256;
#X obj 1055 676 nbx 5 14 -1e+37 1e+37 0 0 empty empty empty 0 -8 0 10 #fcfcfc #000000 #000000 0 256;
#X obj 983 733 maxlib/scale;
#X obj 1132 655 tgl 15 0 empty empty empty 17 7 0 10 #fcfcfc #000000 #000000 0 1;
#X floatatom 926 774 5 0 0 0 - - - 0;
#X obj 1553 252 until;
#X obj 1545 281 f;
#X obj 1576 281 + 1;
#X msg 1552 179 -1;
#X msg 1545 220 30;
#X obj 1534 451 f;
#X obj 1472 152 t b b b b b;
#X msg 1683 214 set \$1;
#X obj 1608 468 /;
#X obj 1576 423 f;
#X obj 1576 383 t b f;
#X obj 1608 422 +;
#X obj 1650 184 t f f;
#X obj 1550 114 f;
#X obj 1629 109 + 1;
#X msg 1641 74 0;
#X obj 1551 35 tgl 15 0 empty empty empty 17 7 0 10 #fcfcfc #000000 #000000 0 1;
#X obj 1551 68 metro 100;
#X obj 1644 149 arraysize array2;
#X obj 1576 354 tabread array2;
#X obj 152 727 f;
#X obj 200 732 + 1;
#X msg 233 680 0;
#X obj 147 648 tgl 15 0 empty empty empty 17 7 0 10 #fcfcfc #000000 #000000 0 1;
#X obj 201 773 mod 30;
#X obj 152 684 metro 100;
#X obj 31 657 r y_position;
#X obj 33 757 tabwrite array2;
#X obj 421 720 f;
#X obj 469 725 + 1;
#X msg 502 673 0;
#X obj 416 641 tgl 15 0 empty empty empty 17 7 0 10 #fcfcfc #000000 #000000 0 1;
#X obj 470 766 mod 30;
#X obj 421 677 metro 100;
#X obj 300 650 r z_position;
#X obj 304 750 tabwrite array3;
#N canvas 0 50 450 250 (subpatch) 0;
#X array array3 30 float 1;
#A 0 77 -24 -13 5 16 18 -72 -74 -77 205 197 186 176 167 156 144 130 27 43 53 58 59 62 66 69 71 74 76 77 -34;
#X coords 0 1000 29 -1000 200 140 1 0 0;
#X restore 12 270 graph;
#N canvas 0 50 450 250 (subpatch) 0;
#X array array2 30 float 1;
#A 0 69 87 77 69 58 40 31 10 -3 -13 -21 -31 -33 123 127 -25 -7 29 51 60 69 122 125 131 132 0.000162119 128 109 96 91;
#X coords 0 1000 29 -1000 200 140 1 0 0;
#X restore 11 433 graph;
#X obj 1637 713 until;
#X obj 1629 742 f;
#X obj 1660 742 + 1;
#X msg 1636 640 -1;
#X msg 1629 681 30;
#X obj 1613 873 f;
#X obj 1556 613 t b b b b b;
#X msg 1728 683 set \$1;
#X obj 1687 890 /;
#X obj 1655 845 f;
#X obj 1655 805 t b f;
#X obj 1687 844 +;
#X obj 1702 647 t f f;
#X obj 1634 575 f;
#X obj 1713 570 + 1;
#X msg 1725 535 0;
#X obj 1635 496 tgl 15 0 empty empty empty 17 7 0 10 #fcfcfc #000000 #000000 0 1;
#X obj 1635 529 metro 100;
#X obj 1671 606 arraysize array3;
#X obj 1652 775 tabread array3;
#X floatatom 1080 837 5 0 0 0 - - - 0;
#X obj 1112 801 nbx 5 14 -1e+37 1e+37 0 0 empty empty empty 0 -8 0 10 #fcfcfc #000000 #000000 0 256;
#X obj 1142 768 nbx 5 14 -1e+37 1e+37 0 0 empty empty empty 0 -8 0 10 #fcfcfc #000000 #000000 0 256;
#X obj 1207 803 nbx 5 14 -1e+37 1e+37 0 0 empty empty empty 0 -8 0 10 #fcfcfc #000000 #000000 0 256;
#X obj 1222 832 nbx 5 14 -1e+37 1e+37 0 0 empty empty empty 0 -8 0 10 #fcfcfc #000000 #000000 0 256;
#X obj 1150 889 maxlib/scale;
#X obj 1299 811 tgl 15 0 empty empty empty 17 7 0 10 #fcfcfc #000000 #000000 0 1;
#X floatatom 1085 889 5 0 0 0 - - - 0;
#X msg 1704 300 0;
#X msg 1757 732 0;
#X obj 936 874 int;
#X obj 690 635 +;
#X obj 866 811 * 12;
#X floatatom 860 911 5 0 0 0 - - - 0;
#X connect 0 0 14 0;
#X connect 5 0 6 0;
#X connect 10 0 96 0;
#X connect 11 0 10 0;
#X connect 13 0 11 0;
#X connect 14 0 15 0;
#X connect 15 0 89 0;
#X connect 17 0 18 1;
#X connect 18 0 16 1;
#X connect 18 0 16 0;
#X connect 19 0 18 0;
#X connect 20 0 19 0;
#X connect 21 0 60 1;
#X connect 22 0 23 0;
#X connect 22 0 27 1;
#X connect 23 0 47 0;
#X connect 24 0 22 1;
#X connect 25 0 75 0;
#X connect 28 0 29 0;
#X connect 29 0 30 0;
#X connect 30 0 29 1;
#X connect 30 0 32 0;
#X connect 31 0 29 1;
#X connect 32 0 42 0;
#X connect 33 0 41 1;
#X connect 34 0 28 0;
#X connect 35 0 39 0;
#X connect 35 0 46 0;
#X connect 35 0 66 0;
#X connect 36 0 44 0;
#X connect 37 0 35 0;
#X connect 37 1 34 0;
#X connect 37 2 31 0;
#X connect 37 3 33 0;
#X connect 37 4 36 0;
#X connect 38 0 34 0;
#X connect 40 0 35 1;
#X connect 41 0 43 0;
#X connect 42 0 41 0;
#X connect 42 1 43 1;
#X connect 43 0 41 1;
#X connect 43 0 40 0;
#X connect 44 0 40 1;
#X connect 44 1 38 0;
#X connect 46 0 52 0;
#X connect 47 0 22 1;
#X connect 48 0 49 0;
#X connect 48 0 37 0;
#X connect 49 0 48 1;
#X connect 50 0 48 1;
#X connect 51 0 76 0;
#X connect 54 0 55 0;
#X connect 54 0 52 1;
#X connect 55 0 78 0;
#X connect 56 0 54 1;
#X connect 57 0 77 0;
#X connect 60 0 58 0;
#X connect 62 0 60 0;
#X connect 63 0 58 1;
#X connect 64 0 67 0;
#X connect 64 0 68 0;
#X connect 65 0 64 5;
#X connect 66 0 64 0;
#X connect 68 0 176 0;
#X connect 70 0 74 0;
#X connect 71 0 73 0;
#X connect 73 0 13 0;
#X connect 73 0 12 0;
#X connect 74 0 71 0;
#X connect 75 0 22 0;
#X connect 76 0 48 0;
#X connect 77 0 54 0;
#X connect 78 0 54 1;
#X connect 79 0 14 1;
#X connect 80 0 64 1;
#X connect 81 0 64 2;
#X connect 82 0 64 3;
#X connect 83 0 64 4;
#X connect 84 0 91 0;
#X connect 85 0 86 0;
#X connect 86 0 87 0;
#X connect 87 0 90 0;
#X connect 88 0 86 1;
#X connect 91 0 92 0;
#X connect 92 0 94 0;
#X connect 93 0 91 1;
#X connect 95 0 27 0;
#X connect 96 0 9 0;
#X connect 96 0 9 1;
#X connect 97 0 98 1;
#X connect 98 0 96 1;
#X connect 99 0 104 0;
#X connect 100 0 104 1;
#X connect 101 0 104 2;
#X connect 102 0 104 3;
#X connect 103 0 104 4;
#X connect 104 0 98 0;
#X connect 104 0 106 0;
#X connect 105 0 104 5;
#X connect 107 0 108 0;
#X connect 108 0 109 0;
#X connect 109 0 108 1;
#X connect 109 0 126 0;
#X connect 110 0 108 1;
#X connect 111 0 107 0;
#X connect 112 0 99 0;
#X connect 113 0 112 0;
#X connect 113 1 111 0;
#X connect 113 2 110 0;
#X connect 113 3 173 0;
#X connect 113 4 125 0;
#X connect 114 0 111 0;
#X connect 115 0 112 1;
#X connect 116 0 118 0;
#X connect 117 0 116 0;
#X connect 117 1 118 1;
#X connect 118 0 116 1;
#X connect 118 0 115 0;
#X connect 119 0 115 1;
#X connect 119 1 114 0;
#X connect 120 0 121 0;
#X connect 120 0 113 0;
#X connect 121 0 120 1;
#X connect 122 0 120 1;
#X connect 123 0 124 0;
#X connect 124 0 120 0;
#X connect 125 0 119 0;
#X connect 126 0 117 0;
#X connect 127 0 128 0;
#X connect 127 0 134 1;
#X connect 128 0 131 0;
#X connect 129 0 127 1;
#X connect 130 0 132 0;
#X connect 131 0 127 1;
#X connect 132 0 127 0;
#X connect 133 0 134 0;
#X connect 135 0 136 0;
#X connect 135 0 142 1;
#X connect 136 0 139 0;
#X connect 137 0 135 1;
#X connect 138 0 140 0;
#X connect 139 0 135 1;
#X connect 140 0 135 0;
#X connect 141 0 142 0;
#X connect 145 0 146 0;
#X connect 146 0 147 0;
#X connect 147 0 146 1;
#X connect 147 0 164 0;
#X connect 148 0 146 1;
#X connect 149 0 145 0;
#X connect 150 0 165 0;
#X connect 151 0 150 0;
#X connect 151 1 149 0;
#X connect 151 2 148 0;
#X connect 151 3 174 0;
#X connect 151 4 163 0;
#X connect 152 0 149 0;
#X connect 153 0 150 1;
#X connect 154 0 156 0;
#X connect 155 0 154 0;
#X connect 155 1 156 1;
#X connect 156 0 154 1;
#X connect 156 0 153 0;
#X connect 157 0 153 1;
#X connect 157 1 152 0;
#X connect 158 0 159 0;
#X connect 158 0 151 0;
#X connect 159 0 158 1;
#X connect 160 0 158 1;
#X connect 161 0 162 0;
#X connect 162 0 158 0;
#X connect 163 0 157 0;
#X connect 164 0 155 0;
#X connect 165 0 170 0;
#X connect 166 0 170 1;
#X connect 167 0 170 2;
#X connect 168 0 170 3;
#X connect 169 0 170 4;
#X connect 170 0 172 0;
#X connect 171 0 170 5;
#X connect 172 0 175 0;
#X connect 173 0 116 1;
#X connect 174 0 154 1;
#X connect 175 0 177 0;
#X connect 175 0 178 0;
#X connect 176 0 73 0;
#X connect 177 0 176 1;
